<svg width="320" height="9940" viewBox="0 0 320 9940" fill="none" xmlns="http://www.w3.org/2000/svg">
<g clip-path="url(#clip0_528_75)">
<line opacity="0.5" x1="162.826" y1="-4.79828e-08" x2="162.826" y2="92" stroke="white"/>
<path opacity="0.5" d="M162.554 92C160.732 490 239.76 607.5 119.283 1298.5" stroke="white"/>
<path opacity="0.5" d="M119.282 1298.5C68.7234 1622 302.614 2153.5 150.938 2395.5" stroke="white"/>
<path opacity="0.5" d="M150.939 2395.5C-99.5799 2796.5 67.8125 3079 42.9883 3410.5" stroke="white"/>
<path opacity="0.5" d="M193.983 5576.5C7.68835 5873.5 -50.1589 6065.5 121.333 6651.5" stroke="white"/>
<path opacity="0.5" d="M42.9879 3410.5C15.2031 3797.5 222.223 4298.5 265.722 4558" stroke="white"/>
<path opacity="0.5" d="M265.723 4558C315.827 4862 359.326 5310.5 193.983 5576.5" stroke="white"/>
<path opacity="0.5" d="M121.333 6651.5C193.299 6903 31.3736 7358.5 91.2703 7692" stroke="white"/>
<path opacity="0.5" d="M91.2705 7692C115.184 7830 235.433 8315.5 231.334 8663" stroke="white"/>
<path opacity="0.5" d="M231.333 8663C225.412 8999 65.307 9317 119.964 9705" stroke="white"/>
<path opacity="0.5" d="M119.966 9705C136.136 9817.5 164.148 9836 164.148 9939.5" stroke="white"/>
</g>
<defs>
<clipPath id="clip0_528_75">
<rect width="320" height="9940" fill="white"/>
</clipPath>
</defs>
</svg>
