<svg width="157" height="106" viewBox="0 0 157 106" fill="none" xmlns="http://www.w3.org/2000/svg">
<g opacity="0.88">
<path d="M19.3126 59.6084H29.2594L24.7234 79.1172C28.4595 73.3399 34.1396 65.3452 38.0661 59.6084H49.7949L35.1461 78.3011L39.6314 105.169H29.4194L26.8881 85.9556L21.8783 91.7592L18.774 105.169H8.82722L19.3147 59.6084H19.3126Z" fill="white"/>
<path d="M39.1226 105.169L49.61 59.6084H60.8811C62.6246 80.0244 63.2078 86.8142 63.2747 89.1126H63.461C64.3499 83.3798 66.1016 74.5225 67.6466 67.8866L69.5562 59.6084H78.78L68.2926 105.169H57.1875C55.8247 83.9772 55.2152 76.1971 55.0815 73.834H54.8709C53.9455 79.3156 52.1048 88.8493 50.3876 96.3013L48.3363 105.169H39.1185H39.1226Z" fill="white"/>
<path d="M103.124 83.8384C99.1208 100.98 93.0499 106 84.3687 106C73.5917 106 69.5802 98.4426 73.8226 80.4404C77.5546 64.5544 83.9334 58.771 92.3249 58.771C102.523 58.771 107.484 65.1538 103.126 83.8364L103.124 83.8384ZM84.0326 81.4266C81.3697 92.8658 81.2847 97.9789 85.0957 97.9789C88.117 97.9789 89.9557 95.1338 92.8474 82.917C95.5224 71.7451 95.9315 66.8386 91.7924 66.8386C88.601 66.8386 86.5476 70.6354 84.0326 81.4266Z" fill="white"/>
<path d="M110.101 67.878H101.434C101.434 67.878 87.8783 58.8445 92.3231 58.7736C100.462 58.644 101.918 58.9984 108.258 58.9984C111.98 58.9984 124.887 59.6059 124.887 59.6059L120.381 67.4143L111.719 105.166H101.543L110.101 67.876V67.878Z" fill="white"/>
<path d="M30.8387 52.3622L36.8935 26.2884C37.5354 23.3684 36.8935 22.2992 33.617 21.6573L33.9734 19.9482L48.0795 16.8135H48.5777L44.6593 33.7687H45.0157C47.1521 28.283 51.356 16.8844 58.3382 16.8844C61.2582 16.8844 63.7429 19.4541 65.4904 19.1463C66.3511 18.9944 65.1219 23.4555 64.4719 22.8925C63.5383 22.0825 62.0925 25.8611 58.7634 25.8611C57.9797 25.8611 57.2669 25.7194 56.1269 25.363C55.2014 25.0066 54.4886 24.8649 53.8467 24.8649C52.2794 24.8649 50.9976 26.0049 49.2864 28.8541C46.6499 33.1997 42.8753 41.9619 40.3805 52.3643H30.8347L30.8387 52.3622Z" fill="white"/>
<path d="M54.7822 42.9587L58.7006 26.2889C59.3425 23.3689 58.7006 22.2997 55.4242 21.6578L55.7806 19.9487L69.8158 16.814H70.3868L63.9757 44.3843C63.4067 46.9499 63.4067 48.1609 64.6176 48.1609C65.8994 48.1609 69.1151 46.8487 71.1381 43.9611C71.6666 43.2057 71.373 40.0164 71.3912 38.8459C71.4074 37.878 74.0237 42.6509 74.0237 42.6509L73.7584 47.8085C73.078 46.792 71.4965 47.3448 69.593 48.4869C65.6099 50.8784 62.7668 53.2193 59.9865 53.2193C55.1427 53.2193 53.3607 49.301 54.7863 42.9607L54.7822 42.9587ZM66.8937 2.42236C69.8867 2.42236 72.2377 4.84426 72.2377 7.55167C72.2377 10.2591 69.8867 12.7519 66.8937 12.7519C63.9008 12.7519 61.4789 10.33 61.4789 7.55167C61.4789 4.77338 63.9008 2.42236 66.8937 2.42236Z" fill="white"/>
<path d="M71.382 39.254C71.382 28.4973 79.8587 16.7422 90.9738 16.7422C95.6759 16.7422 99.8798 18.8077 101.162 22.4425C100.163 24.7936 98.4542 26.2192 96.174 26.2192C93.8939 26.2192 93.254 24.8644 92.5412 23.2262C91.7575 21.2316 91.3302 19.237 89.4065 19.237C84.9191 19.237 80.9279 28.4264 80.9279 37.1177C80.9279 44.0999 83.777 47.2345 87.6954 47.2345C90.6883 47.2345 95.4612 45.975 99.2014 41.0178C99.8676 40.1329 100.791 38.7053 102.016 33.3998C102.158 32.7862 98.5696 48.3301 98.9078 46.8619C99.0495 46.2463 98.4825 45.7887 97.1238 47.192C92.7417 51.7179 87.5678 53.2873 83.7082 53.2873C76.5842 53.2873 71.3841 47.3034 71.3841 39.252L71.382 39.254Z" fill="white"/>
<path d="M132.754 46.9576C129.08 51.7143 126.093 53.2168 123.641 53.2168C120.365 53.2168 118.583 51.364 116.303 45.0946L113.026 36.4033C110.961 40.2508 108.751 45.451 107.113 52.3603H97.6382L107.54 9.47292C108.253 6.47998 107.611 5.48368 104.264 4.77088L104.691 3.06179L118.724 0H119.223L110.746 36.7597H111.102C115.142 28.0725 119.784 20.8898 124.826 18.1156C126.276 17.3177 127.886 16.8135 130.054 16.8135C135.182 16.8135 138.387 21.9226 139.499 26.983C140.611 32.0435 134.169 21.1349 129.007 21.1349C126.816 21.1349 125.069 21.7302 123.641 22.5989C121.529 23.8848 120.116 25.7701 119.012 27.2139L124.356 41.0345C126.209 45.8783 126.849 47.5894 128.416 47.5894C129.408 47.5894 130.413 46.8219 131.541 45.4895L132.756 46.9576H132.754Z" fill="white"/>
<path d="M3.61804 50.2972L4.75811 50.0825C7.32378 49.7262 9.46015 49.0842 10.1021 46.1642L19.4332 5.4861H17.226C9.46015 5.4861 5.96906 9.26272 2.55087 15.6739H0.126953L4.40172 2.49316H46.5054C46.5054 2.49316 44.5067 15.1474 44.4399 15.6718C44.3346 16.494 44.0227 17.713 48.0788 16.8119C48.0788 16.8119 39.667 18.681 40.3778 18.523C42.6255 18.0228 42.2975 16.7127 42.2306 15.6718C41.8155 9.17767 40.1651 5.48408 32.3993 5.48408H29.7627L20.4295 46.1622C19.7876 49.0822 21.5696 49.7241 23.9206 50.0805L24.9898 50.2952L24.4917 52.3607H3.11989L3.61804 50.2952V50.2972Z" fill="white"/>
<path d="M118.082 63.9985C119.216 61.1615 121.484 59.6083 124.89 59.6083C129.531 59.6083 133.721 59.501 136.629 56.5931L137.054 56.1678C137.054 56.1678 131.331 31.8517 130.625 28.9114C129.92 25.9732 128.841 20.6069 124.77 22.0062L125.779 19.9326L133.777 19.884L134.719 21.8725L139.502 26.9836L144.075 47.8006C148.116 42.1994 151.166 36.0293 151.166 30.5699C151.166 25.961 146.699 24.26 146.699 21.3521C146.699 19.0821 148.613 17.0267 152.584 16.6724C155.35 18.2316 156.413 21.1395 156.413 24.26C156.413 34.0448 146.912 49.6453 137.198 59.4301C131.88 64.8186 129.535 67.2668 118.969 67.2668C116.061 67.2668 119.22 65.3471 118.086 64.0005L118.082 63.9985Z" fill="white"/>
</g>
</svg>
