<svg width="24" height="24" viewBox="0 0 24 24" fill="none" xmlns="http://www.w3.org/2000/svg">
<path fill-rule="evenodd" clip-rule="evenodd" d="M12 22.6799C17.8984 22.6799 22.6799 17.8984 22.6799 12C22.6799 6.10164 17.8984 1.32007 12 1.32007C6.10164 1.32007 1.32007 6.10164 1.32007 12C1.32007 17.8984 6.10164 22.6799 12 22.6799ZM12 24C18.6274 24 24 18.6274 24 12C24 5.37258 18.6274 0 12 0C5.37258 0 0 5.37258 0 12C0 18.6274 5.37258 24 12 24Z" fill="white"/>
<path d="M13.63 12.002C13.63 12.9019 12.9005 13.6315 12.0006 13.6315C11.1006 13.6315 10.3711 12.9019 10.3711 12.002C10.3711 11.1021 11.1006 10.3726 12.0006 10.3726C12.9005 10.3726 13.63 11.1021 13.63 12.002Z" fill="white"/>
</svg>
