<svg width="661" height="9940" viewBox="0 0 661 9940" fill="none" xmlns="http://www.w3.org/2000/svg">
<line opacity="0.5" x1="330.5" y1="-2.18557e-08" x2="330.5" y2="92" stroke="white"/>
<path opacity="0.5" d="M330.5 92C326.5 490 503.229 607.5 238.729 1298.5" stroke="white"/>
<path opacity="0.5" d="M238.727 1298.5C127.729 1622 641.222 2153.5 308.225 2395.5" stroke="white"/>
<path opacity="0.5" d="M308.228 2395.5C-241.771 2796.5 125.728 3079 71.2284 3410.5" stroke="white"/>
<path opacity="0.5" d="M402.727 5576.5C-6.27148 5873.5 -133.272 6065.5 243.229 6651.5" stroke="white"/>
<path opacity="0.5" d="M71.2281 3410.5C10.2282 3797.5 464.728 4298.5 560.228 4558" stroke="white"/>
<path opacity="0.5" d="M560.229 4558C670.229 4862 765.729 5310.5 402.729 5576.5" stroke="white"/>
<path opacity="0.5" d="M243.228 6651.5C401.227 6903 45.7287 7358.5 177.228 7692" stroke="white"/>
<path opacity="0.5" d="M177.229 7692C229.729 7830 493.729 8315.5 484.729 8663" stroke="white"/>
<path opacity="0.5" d="M484.729 8663C471.729 8999 120.228 9317 240.224 9705" stroke="white"/>
<path opacity="0.5" d="M240 9705C272.938 9817.74 330 9836.28 330 9940" stroke="white"/>
</svg>
