<svg width="76" height="51" viewBox="0 0 76 51" fill="none" xmlns="http://www.w3.org/2000/svg">
<path d="M9.7066 28.605H14.4799L12.3032 37.967C14.0961 35.1945 16.8219 31.358 18.7061 28.605H24.3346L17.3048 37.5753L19.4573 50.4687H14.5567L13.342 41.2486L10.9378 44.0337L9.44811 50.4687H4.67481L9.70757 28.605H9.7066Z" fill="white"/>
<path d="M19.2133 50.4687L24.2461 28.605H29.6549C30.4916 38.4023 30.7715 41.6606 30.8036 42.7636H30.893C31.3196 40.0125 32.1601 35.762 32.9016 32.5776L33.818 28.605H38.2443L33.2116 50.4687H27.8824C27.2284 40.2992 26.9359 36.5657 26.8718 35.4316H26.7707C26.3266 38.0622 25.4433 42.6372 24.6192 46.2133L23.6349 50.4687H19.2114H19.2133Z" fill="white"/>
<path d="M49.9267 40.2331C48.0055 48.459 45.0922 50.868 40.9262 50.868C35.7545 50.868 33.8294 47.2414 35.8653 38.6025C37.6562 30.979 40.7173 28.2036 44.7443 28.2036C49.6381 28.2036 52.0189 31.2666 49.9277 40.2321L49.9267 40.2331ZM40.7649 39.0757C39.4871 44.5652 39.4462 47.0189 41.2751 47.0189C42.725 47.0189 43.6073 45.6536 44.995 39.7909C46.2787 34.4297 46.475 32.0751 44.4887 32.0751C42.9572 32.0751 41.9719 33.8972 40.7649 39.0757Z" fill="white"/>
<path d="M53.2748 32.5736H49.1156C49.1156 32.5736 42.6107 28.2386 44.7437 28.2046C48.6492 28.1424 49.3479 28.3125 52.3905 28.3125C54.1766 28.3125 60.3706 28.604 60.3706 28.604L58.2084 32.3511L54.0512 50.4677H49.1681L53.2748 32.5727V32.5736Z" fill="white"/>
<path d="M15.2381 25.1277L18.1437 12.6152C18.4517 11.214 18.1437 10.7009 16.5714 10.3928L16.7424 9.57265L23.5117 8.06836H23.7508L21.8704 16.2049H22.0414C23.0666 13.5724 25.084 8.10237 28.4347 8.10237C29.836 8.10237 31.0283 9.33554 31.8669 9.18783C32.2799 9.11495 31.6901 11.2557 31.3781 10.9856C30.9302 10.5969 30.2363 12.4102 28.6387 12.4102C28.2627 12.4102 27.9206 12.3422 27.3735 12.1711C26.9294 12.0001 26.5873 11.9321 26.2793 11.9321C25.5272 11.9321 24.912 12.4792 24.0909 13.8465C22.8257 15.9319 21.0143 20.1367 19.8171 25.1286H15.2362L15.2381 25.1277Z" fill="white"/>
<path d="M26.7279 20.6149L28.6082 12.6153C28.9163 11.214 28.6082 10.7009 27.0359 10.3929L27.2069 9.57272L33.9422 8.06843H34.2163L31.1397 21.299C30.8666 22.5302 30.8666 23.1113 31.4477 23.1113C32.0629 23.1113 33.606 22.4816 34.5768 21.0959C34.8304 20.7334 34.6895 19.2029 34.6983 18.6412C34.706 18.1767 35.9616 20.4672 35.9616 20.4672L35.8343 22.9422C35.5078 22.4544 34.7488 22.7197 33.8353 23.2678C31.9239 24.4154 30.5595 25.5388 29.2253 25.5388C26.9008 25.5388 26.0457 23.6584 26.7298 20.6158L26.7279 20.6149ZM32.54 1.16211C33.9763 1.16211 35.1045 2.32434 35.1045 3.62359C35.1045 4.92283 33.9763 6.11907 32.54 6.11907C31.1037 6.11907 29.9415 4.95685 29.9415 3.62359C29.9415 2.29033 31.1037 1.16211 32.54 1.16211Z" fill="white"/>
<path d="M34.6945 18.8378C34.6945 13.6758 38.7623 8.03467 44.0963 8.03467C46.3527 8.03467 48.3701 9.02587 48.9852 10.7702C48.5061 11.8984 47.686 12.5825 46.5918 12.5825C45.4976 12.5825 45.1905 11.9324 44.8484 11.1463C44.4724 10.1891 44.2673 9.23188 43.3441 9.23188C41.1907 9.23188 39.2754 13.6417 39.2754 17.8126C39.2754 21.1632 40.6426 22.6675 42.523 22.6675C43.9593 22.6675 46.2497 22.063 48.0446 19.6842C48.3643 19.2595 48.8074 18.5744 49.3953 16.0284C49.4633 15.7339 47.7414 23.1932 47.9037 22.4887C47.9717 22.1933 47.6996 21.9736 47.0475 22.6471C44.9446 24.819 42.4618 25.5721 40.6096 25.5721C37.1909 25.5721 34.6954 22.7005 34.6954 18.8368L34.6945 18.8378Z" fill="white"/>
<path d="M64.1459 22.5342C62.3831 24.8169 60.9498 25.5379 59.773 25.5379C58.2007 25.5379 57.3455 24.6488 56.2513 21.6402L54.679 17.4694C53.6878 19.3157 52.6276 21.8112 51.8414 25.1269H47.2946L52.0465 4.54591C52.3885 3.10964 52.0805 2.63154 50.4742 2.28947L50.6792 1.46931L57.4135 0H57.6526L53.5848 17.6404H53.7558C55.6945 13.4716 57.9218 10.0247 60.3414 8.6934C61.0372 8.31052 61.8098 8.06855 62.8505 8.06855C65.311 8.06855 66.8494 10.5203 67.3828 12.9487C67.9163 15.3772 64.8252 10.1423 62.3481 10.1423C61.2967 10.1423 60.4581 10.428 59.773 10.8449C58.7594 11.4619 58.0811 12.3667 57.5515 13.0595L60.116 19.6918C61.0052 22.0163 61.3122 22.8374 62.0644 22.8374C62.5406 22.8374 63.0225 22.4691 63.5638 21.8297L64.1469 22.5342H64.1459Z" fill="white"/>
<path d="M2.17532 24.1367L2.72242 24.0337C3.95365 23.8627 4.97886 23.5546 5.28691 22.1533L9.76479 2.63256H8.70557C4.97886 2.63256 3.30354 4.44489 1.6632 7.5215H0.5L2.55139 1.19629H22.7563C22.7563 1.19629 21.7972 7.26884 21.7651 7.52053C21.7146 7.91506 21.5649 8.50006 23.5114 8.06763C23.5114 8.06763 19.4747 8.96457 19.8157 8.88877C20.8944 8.64874 20.737 8.02001 20.7049 7.52053C20.5057 4.40408 19.7137 2.63158 15.987 2.63158H14.7218L10.2429 22.1524C9.93485 23.5537 10.79 23.8617 11.9182 24.0327L12.4313 24.1357L12.1923 25.1269H1.93627L2.17532 24.1357V24.1367Z" fill="white"/>
<path d="M57.1058 30.7116C57.65 29.3501 58.7384 28.6048 60.3729 28.6048C62.6002 28.6048 64.6107 28.5533 66.0062 27.1578L66.2103 26.9538C66.2103 26.9538 63.4641 15.2848 63.1249 13.8738C62.7867 12.4638 62.2688 9.88862 60.3155 10.5601L60.7995 9.56503L64.6379 9.54171L65.0898 10.496L67.3851 12.9487L69.5794 22.9384C71.519 20.2505 72.9825 17.2896 72.9825 14.6697C72.9825 12.458 70.8388 11.6417 70.8388 10.2462C70.8388 9.15689 71.7571 8.17055 73.6627 8.00049C74.9901 8.74875 75.5003 10.1442 75.5003 11.6417C75.5003 16.3372 70.9408 23.8237 66.2793 28.5193C63.7274 31.1051 62.6021 32.28 57.5314 32.28C56.136 32.28 57.6519 31.3588 57.1077 30.7125L57.1058 30.7116Z" fill="white"/>
</svg>
